:SAMPLES-PER-SECOND 30
:FULLY-SPECIFIED
:DEGREES
369
root  -3.3416 41.0299 0.507851 146.469 -88.9732 -144.564
RightUpLeg  1.78292 -1.2289 -1.49587
RightLeg  -6.04206 -19.2317 2.74305
RightFoot  3.27309 -0.328792 2.69781
RightToes  -3.1126e-008 1.75238e-005 3.56266e-009
Spine  10.4835 -4.86615 -13.0692
Spine1  -15.1791 -6.2611 18.1495
HEad  0.847172 2.18849 -0.110417
LeftShoulder1  0.378393 1.48014 -11.4995
LeftArm  4.91032 -48.1141 -65.6439
LeftForeArm  54.1939 -74.0922 -34.6404
LeftHand  -0.55484 -5.04694 6.47241
RightShoulder  0.0414534 -3.2702 13.051
RightArm  -23.6489 -41.4309 44.2632
RightForeArm  96.7084 79.2419 104.167
RightHand  -0.300914 7.69735 -3.03674
LeftUpLeg  1.67884 1.30839 2.77455
LeftLeg  -4.06422 18.2862 -1.71337
LeftFoot  1.23592 0.325415 -3.02351
LeftToes  4.78049e-008 1.46235e-008 1.34219e-009
370
root  -3.33861 41.0305 0.526068 91.1372 -89.4941 -89.1261
RightUpLeg  1.75425 -1.29994 -1.56962
RightLeg  -6.02623 -20.0361 2.82604
RightFoot  3.22475 -0.334596 2.78004
RightToes  -3.1126e-008 1.75238e-005 3.56266e-009
Spine  10.8677 -5.44655 -13.8902
Spine1  -15.2231 -6.95824 19.2507
HEad  0.521605 2.4513 -0.0769534
LeftShoulder1  0.301441 1.86656 -11.1895
LeftArm  8.73427 -48.6888 -68.9274
LeftForeArm  54.4837 -74.0563 -34.4495
LeftHand  -0.589452 -5.48205 6.60563
RightShoulder  0.11684 -2.89114 12.5645
RightArm  -27.0611 -43.6598 44.4787
RightForeArm  96.0637 79.2782 103.441
RightHand  -0.199874 7.69163 -2.13713
LeftUpLeg  1.42317 1.22128 2.72237
LeftLeg  -4.03686 17.4685 -1.65991
LeftFoot  1.28096 0.328554 -3.04913
LeftToes  4.78049e-008 1.46235e-008 1.34219e-009
371
root  -3.33094 41.0311 0.539852 36.2372 -89.2361 -34.1303
RightUpLeg  1.71289 -1.38997 -1.6722
RightLeg  -6.04383 -20.5484 2.90872
RightFoot  3.19219 -0.339546 2.85245
RightToes  -3.1126e-008 1.75238e-005 3.56266e-009
Spine  11.2342 -5.73892 -14.3187
Spine1  -15.48 -7.28816 19.7934
HEad  0.40733 2.62545 -0.159715
LeftShoulder1  0.275094 1.98544 -10.8563
LeftArm  11.5474 -49.0457 -71.4932
LeftForeArm  55.7984 -74.3163 -34.9812
LeftHand  -0.579129 -5.71664 6.36486
RightShoulder  0.0159063 -3.39986 11.9982
RightArm  -28.8978 -45.3308 44.5196
RightForeArm  94.9993 79.2588 103.101
RightHand  -0.137122 7.55587 -1.59461
LeftUpLeg  1.30987 1.20604 2.67956
LeftLeg  -4.20479 16.8834 -1.75598
LeftFoot  1.41954 0.326851 -3.00147
LeftToes  4.78049e-008 1.46235e-008 1.34219e-009
372
root  -3.32389 41.0316 0.557789 22.3125 -88.878 -20.1375
RightUpLeg  1.711 -1.48639 -1.77021
RightLeg  -6.11696 -20.8586 3.00299
RightFoot  3.17744 -0.342309 2.89395
RightToes  -3.1126e-008 1.75238e-005 3.56266e-009
Spine  11.3392 -6.11116 -14.6446
Spine1  -15.2481 -7.74691 20.1586
HEad  0.167364 3.06393 -0.27184
LeftShoulder1  0.244844 2.14223 -10.7087
LeftArm  12.5951 -49.3111 -72.5566
LeftForeArm  56.4428 -74.6709 -36.05
LeftHand  -0.494368 -5.61095 5.5358
RightShoulder  -0.0572146 -3.78584 11.6996
RightArm  -29.5492 -46.0203 44.4899
RightForeArm  93.4655 79.3181 101.578
RightHand  -0.150456 7.5667 -1.71207
LeftUpLeg  1.19755 1.10209 2.59068
LeftLeg  -4.25453 16.5984 -1.72364
LeftFoot  1.45625 0.33187 -3.04839
LeftToes  4.78049e-008 1.46235e-008 1.34219e-009
373
root  -3.32048 41.0322 0.572082 21.1807 -88.8361 -18.9381
RightUpLeg  1.64965 -1.39842 -1.75597
RightLeg  -6.15611 -20.987 2.94107
RightFoot  3.22641 -0.341897 2.8888
RightToes  -3.1126e-008 1.75238e-005 3.56266e-009
Spine  11.4613 -6.22235 -14.8107
Spine1  -15.3859 -7.86588 20.4312
HEad  0.372137 3.45401 -0.563181
LeftShoulder1  0.253694 2.1012 -10.8243
LeftArm  12.718 -49.1628 -72.9941
LeftForeArm  57.013 -74.8694 -36.6299
LeftHand  -0.506925 -5.79042 5.58519
RightShoulder  -0.0575707 -3.79213 11.4468
RightArm  -29.3371 -46.5108 43.8965
RightForeArm  90.6363 79.383 99.1199
RightHand  -0.149341 7.68687 -1.69168
LeftUpLeg  1.0736 1.12211 2.58838
LeftLeg  -4.1632 16.5236 -1.74159
LeftFoot  1.43737 0.340106 -3.13218
LeftToes  4.78049e-008 1.46235e-008 1.34219e-009
374
root  -3.32052 41.0327 0.594134 27.6697 -89.1803 -25.4429
RightUpLeg  1.56953 -1.42787 -1.83538
RightLeg  -6.03376 -20.6382 2.84399
RightFoot  3.22644 -0.347018 2.97168
RightToes  -3.1126e-008 1.75238e-005 3.56266e-009
Spine  11.3168 -6.155 -14.5416
Spine1  -15.2053 -7.78257 19.9961
HEad  0.735178 3.47666 -0.752793
LeftShoulder1  0.23836 2.18731 -10.8437
LeftArm  12.4357 -49.0817 -72.8794
LeftForeArm  57.4723 -75.0914 -37.3591
LeftHand  -0.520295 -5.43318 5.89195
RightShoulder  -0.0445556 -3.72081 11.5674
RightArm  -28.6157 -46.5579 43.3317
RightForeArm  89.878 79.4018 98.3888
RightHand  -0.10801 7.72916 -1.32682
LeftUpLeg  1.22546 1.05402 2.48473
LeftLeg  -4.3614 16.9378 -1.79951
LeftFoot  1.48759 0.340891 -3.09461
LeftToes  4.78049e-008 1.46235e-008 1.34219e-009
375
root  -3.31337 41.0332 0.609225 71.2663 -89.604 -69.1445
RightUpLeg  1.52591 -1.38176 -1.8465
RightLeg  -5.86453 -20.0499 2.65717
RightFoot  3.24535 -0.348884 3.00587
RightToes  -3.1126e-008 1.75238e-005 3.56266e-009
Spine  11.2675 -5.8453 -14.2559
Spine1  -15.0988 -7.46217 19.6381
HEad  1.261 3.6256 -0.783099
LeftShoulder1  0.241943 2.17165 -10.9064
LeftArm  11.6225 -48.7681 -72.1178
LeftForeArm  58.2252 -75.4166 -38.4694
LeftHand  -0.519683 -5.15951 6.02301
RightShoulder  -0.0383022 -3.68785 11.5579
RightArm  -27.9998 -46.2789 43.2917
RightForeArm  90.8787 79.4404 98.4879
RightHand  0.00789424 7.94001 -0.313274
LeftUpLeg  1.45475 1.05047 2.42943
LeftLeg  -4.46757 17.5756 -1.86683
LeftFoot  1.47566 0.344011 -3.09578
LeftToes  4.78049e-008 1.46235e-008 1.34219e-009
376
root  -3.30939 41.0338 0.627496 148.929 -89.5267 -146.856
RightUpLeg  1.48072 -1.38688 -1.91058
RightLeg  -5.78938 -19.4831 2.54631
RightFoot  3.28654 -0.351435 3.05206
RightToes  -3.1126e-008 1.75238e-005 3.56266e-009
Spine  11.0621 -5.57277 -13.6876
Spine1  -14.9284 -7.133 18.84
HEad  1.28717 3.74992 -0.760752
LeftShoulder1  0.249182 2.1297 -10.8743
LeftArm  10.5299 -48.2945 -71.1584
LeftForeArm  58.9458 -75.6754 -39.3756
LeftHand  -0.517816 -4.98267 6.09261
RightShoulder  -0.0180447 -3.57759 11.9232
RightArm  -27.0852 -45.674 43.0525
RightForeArm  90.9536 79.3705 99.4758
RightHand  -0.144352 7.42759 -1.66449
LeftUpLeg  1.68719 0.968482 2.31505
LeftLeg  -4.71523 18.2323 -1.92822
LeftFoot  1.51937 0.344971 -3.07352
LeftToes  4.78049e-008 1.46235e-008 1.34219e-009
377
root  -3.30145 41.0343 0.643631 158.926 -89.1658 -156.875
RightUpLeg  1.54514 -1.39396 -1.92397
RightLeg  -5.99502 -19.067 2.61428
RightFoot  3.45196 -0.345326 2.96485
RightToes  -3.1126e-008 1.75238e-005 3.56266e-009
Spine  10.9346 -5.33821 -13.0809
Spine1  -14.8752 -6.82821 18.0824
HEad  1.45957 3.86661 -0.907818
LeftShoulder1  0.214271 2.31967 -10.8358
LeftArm  10.1525 -48.0753 -70.677
LeftForeArm  59.2838 -75.7246 -39.4938
LeftHand  -0.549931 -5.07976 6.40013
RightShoulder  0.0305307 -3.32633 12.3064
RightArm  -26.5877 -45.0732 42.8135
RightForeArm  91.31 79.396 99.3559
RightHand  -0.132386 7.7804 -1.53648
LeftUpLeg  1.8084 0.900109 2.25965
LeftLeg  -4.84368 18.7393 -1.90477
LeftFoot  1.57395 0.341667 -3.00288
LeftToes  4.78049e-008 1.46235e-008 1.34219e-009
378
root  -3.29849 41.0343 0.652799 166.642 -88.7595 -164.709
RightUpLeg  1.57528 -1.39237 -1.9278
RightLeg  -5.90152 -18.6526 2.54971
RightFoot  3.43459 -0.342329 2.92649
RightToes  -3.1126e-008 1.75238e-005 3.56266e-009
Spine  10.8431 -5.01695 -12.6962
Spine1  -14.7458 -6.48214 17.5862
HEad  1.67282 3.95416 -1.09214
LeftShoulder1  0.199525 2.41107 -10.9847
LeftArm  9.72351 -47.8907 -70.3238
LeftForeArm  59.2793 -75.7271 -39.5072
LeftHand  -0.528889 -4.59713 6.43117
RightShoulder  0.156246 -2.68322 12.435
RightArm  -26.4472 -44.7982 42.6653
RightForeArm  91.0458 79.4271 98.7732
RightHand  -0.0469868 7.95726 -0.782595
LeftUpLeg  1.95897 0.921486 2.24626
LeftLeg  -4.79116 19.1452 -1.89717
LeftFoot  1.46303 0.348335 -3.1132
LeftToes  4.78049e-008 1.46235e-008 1.34219e-009
379
root  -3.30242 41.0329 0.646623 164.299 -88.7115 -162.353
RightUpLeg  1.57581 -1.36491 -1.86698
RightLeg  -5.92459 -18.6723 2.57851
RightFoot  3.42639 -0.34589 2.99004
RightToes  -3.1126e-008 1.75238e-005 3.56266e-009
Spine  10.8736 -4.84075 -12.5015
Spine1  -14.985 -6.25549 17.4773
HEad  1.91849 3.81405 -1.18705
LeftShoulder1  0.259117 2.11013 -11.4006
LeftArm  8.95281 -47.4059 -69.3096
LeftForeArm  60.1093 -75.9029 -40.0549
LeftHand  -0.598696 -5.17978 6.88181
RightShoulder  0.151638 -2.70579 12.366
RightArm  -25.8974 -44.2727 43.0505
RightForeArm  90.7643 79.4718 97.9785
RightHand  -0.121493 7.81437 -1.43589
LeftUpLeg  1.69421 1.02582 2.35723
LeftLeg  -4.21572 19.0137 -1.75368
LeftFoot  1.13978 0.363021 -3.38192
LeftToes  4.78049e-008 1.46235e-008 1.34219e-009
